<svg xmlns="http://www.w3.org/2000/svg" viewBox="0 0 100 100">
  <rect x="10" y="30" width="80" height="50" rx="5" fill="#4ECDC4" stroke="#2C3E50" stroke-width="2"/>
  <rect x="15" y="35" width="10" height="8" rx="1" fill="#F7F9FC"/>
  <rect x="27" y="35" width="10" height="8" rx="1" fill="#F7F9FC"/>
  <rect x="39" y="35" width="10" height="8" rx="1" fill="#F7F9FC"/>
  <rect x="51" y="35" width="10" height="8" rx="1" fill="#F7F9FC"/>
  <rect x="63" y="35" width="10" height="8" rx="1" fill="#F7F9FC"/>
  <rect x="75" y="35" width="10" height="8" rx="1" fill="#F7F9FC"/>
  <rect x="15" y="45" width="10" height="8" rx="1" fill="#FFE66D"/>
  <rect x="27" y="45" width="10" height="8" rx="1" fill="#FFE66D"/>
  <rect x="39" y="45" width="10" height="8" rx="1" fill="#FFE66D"/>
  <rect x="51" y="45" width="10" height="8" rx="1" fill="#FFE66D"/>
  <rect x="63" y="45" width="10" height="8" rx="1" fill="#FFE66D"/>
  <rect x="75" y="45" width="10" height="8" rx="1" fill="#FFE66D"/>
  <rect x="15" y="55" width="10" height="8" rx="1" fill="#F7F9FC"/>
  <rect x="27" y="55" width="10" height="8" rx="1" fill="#F7F9FC"/>
  <rect x="39" y="55" width="10" height="8" rx="1" fill="#F7F9FC"/>
  <rect x="51" y="55" width="10" height="8" rx="1" fill="#F7F9FC"/>
  <rect x="63" y="55" width="10" height="8" rx="1" fill="#F7F9FC"/>
  <rect x="75" y="55" width="10" height="8" rx="1" fill="#F7F9FC"/>
  <rect x="25" y="65" width="50" height="8" rx="1" fill="#F7F9FC"/>
</svg>
